<svg xmlns="http://www.w3.org/2000/svg" viewBox="0 0 362.25 362.25"><defs><style>.cls-1{fill:#11806a;stroke:#979797;stroke-miterlimit:10;stroke-width:0.75px;}.cls-2{fill:#fff;}</style></defs><g id="Capa_2" data-name="Capa 2"><g id="Capa_1-2" data-name="Capa 1"><path class="cls-1" d="M335.3.38H27A26.59,26.59,0,0,0,.38,27V335.29A26.6,26.6,0,0,0,27,361.88H335.3a26.59,26.59,0,0,0,26.58-26.59V27A26.58,26.58,0,0,0,335.3.38ZM139.36,284,43.63,181.79,82.8,145l59.3,63.21c46.75-43.36,93.17-86.45,140.07-130,12.16,13.16,24.12,26.13,36.46,39.5C258.85,173.2,199.34,228.39,139.36,284Z"/><path class="cls-2" d="M318.63,117.76C258.85,173.2,199.34,228.39,139.36,284L43.63,181.79,82.8,145l59.3,63.21c46.75-43.36,93.17-86.45,140.07-130C294.33,91.42,306.29,104.39,318.63,117.76Z"/></g></g></svg>