<svg xmlns="http://www.w3.org/2000/svg" viewBox="0 0 413.77 432"><defs><style>.cls-1{fill:#11766a;}</style></defs><g id="Capa_2" data-name="Capa 2"><g id="Capa_1-2" data-name="Capa 1"><path class="cls-1" d="M282.88,432c-3.17-3.23-6.85-6.11-9.44-9.75q-36.81-51.67-73.32-103.57c-4.29-6.07-4.8-10.87-1.71-15.54A11.14,11.14,0,0,1,212,298.66a36.22,36.22,0,0,1,5.62,2.86c22.78,13.63,45.53,27.3,68.68,41.19l25.23-20.83,81.3-67.14c3.6-3,7.4-5,12.34-3.58a11.48,11.48,0,0,1,7.45,16,30.07,30.07,0,0,1-3.12,5q-55.33,75.49-110.78,150.9c-2.49,3.38-6.05,6-9.11,8.93Z"/><path class="cls-1" d="M295.06,304.59v-257H47.51V354.12h5.38q69.41,0,138.81-.07a7.67,7.67,0,0,1,7.2,3.73C208,371,217.33,384,226.58,397.07c.79,1.13,1.52,2.29,2.64,4-1.89.1-3.23.23-4.57.23q-99.15,0-198.3,0c-13.61,0-22.62-6.36-25.57-18.08A32.42,32.42,0,0,1,0,375.27Q0,200.64,0,26C0,9.61,9.6,0,25.91,0H316.18c16.36,0,26,9.53,26,25.91q0,118.11.07,236.22a7.33,7.33,0,0,1-3,6.37c-13.52,11-26.92,22.15-40.37,33.24C297.8,302.6,296.7,303.35,295.06,304.59Z"/><path class="cls-1" d="M171.49,82.65c23.19,0,46.38-.09,69.56,0,15.29.08,25.55,11.52,24.13,26.57-1.1,11.64-11.35,20.42-24.31,20.6-9.7.14-19.4,0-29.09,0q-54.81,0-109.62,0c-11.9,0-20.86-6.05-24.18-16.09a23.45,23.45,0,0,1,22.26-31.07c15.88-.24,31.76-.06,47.64-.06Q159.69,82.64,171.49,82.65Z"/><path class="cls-1" d="M170.94,153.47c23.32,0,46.65-.09,70,0,15.43.08,25.63,11.34,24.27,26.42-.88,9.72-8.91,18.4-18.75,20.13a41.5,41.5,0,0,1-7.12.62q-68.31.06-136.6,0c-10.94,0-19.49-4.1-24-14.43-6.56-14.86,3.94-31.74,20.18-32.69,3.36-.19,6.74-.11,10.11-.11Z"/><path class="cls-1" d="M171.34,224.3c23,0,46.09,0,69.14,0,11.65,0,20.45,6.06,23.72,16,5.26,16-6.2,31-24,31.15-16.16.16-32.32,0-48.48,0q-44.47,0-89,0c-12.49,0-21.53-6-24.83-16.35-4.78-14.92,5.65-30.41,21.34-30.66,24-.39,48.06-.1,72.09-.1Z"/></g></g></svg>