<svg xmlns="http://www.w3.org/2000/svg" viewBox="0 0 468.67 468.24"><defs><style>.cls-1{fill:#fff;}</style></defs><g id="Capa_2" data-name="Capa 2"><g id="Capa_1-2" data-name="Capa 1"><path class="cls-1" d="M468.67,249.81c-.7,2.16-1.31,4.36-2.12,6.49-4.93,13-16.61,20.52-32,20.55q-49.18.06-98.38,0H277v6.23q0,75.5,0,151c0,16.47-8.28,28.48-22.47,32.93a10.71,10.71,0,0,1-3.09.74c-11.25.08-22.63,1.18-33.72-.17-14.3-1.73-24.33-13.76-25.69-28.13-.23-2.42-.26-4.87-.26-7.31q0-74.34,0-148.69v-6.58H185.6q-75.49,0-151,0c-16.48,0-28.53-8.21-33-22.4a26.37,26.37,0,0,1-1.41-7.14c-.17-8.69-.43-17.4,0-26.07C1,206,13.36,193.48,28.62,192a77.51,77.51,0,0,1,7.77-.3q74.35,0,148.71,0h6.65v-6.08c0-48.95.32-97.91-.18-146.85-.18-17.5,5.36-32.93,27.25-38.71h31.12c21.9,5.73,27.42,21.28,27.24,38.69-.49,48.93-.17,97.87-.17,146.81v6.14h6.58q74.57,0,149.12,0A59.33,59.33,0,0,1,440,192c13.36,1.68,22.28,9,26.94,21.57.63,1.7,1.15,3.45,1.71,5.18Z"/></g></g></svg>