<svg xmlns="http://www.w3.org/2000/svg" viewBox="0 0 192 189"><defs><style>.cls-1{fill:#27dac5;}</style></defs><g id="Capa_2" data-name="Capa 2"><g id="Capa_1-2" data-name="Capa 1"><path class="cls-1" d="M192,82.58V72.47c-.11-.6-.25-1.19-.33-1.8-.45-3.08-.68-6.2-1.37-9.23-5-22-17.08-38.93-36.44-50.53-17-10.19-35.42-13.12-54.81-9.3A75.38,75.38,0,0,0,55.89,26.78,75.07,75.07,0,0,0,37.2,70.17a75.8,75.8,0,0,0,10.57,46.77,2,2,0,0,1-.37,3C34,133.24,20.65,146.65,7.2,160,3.8,163.3.88,166.82,0,171.66v3.74L.4,177a15.29,15.29,0,0,0,14.27,12c5.09.36,9.18-1.74,12.7-5.26Q48,163.11,68.58,142.55c.52-.51,1.06-1,1.58-1.49,1.17.75,2.16,1.4,3.17,2a76.22,76.22,0,0,0,53.13,10.85c18.38-2.83,33.78-11.45,46.11-25.35a75.12,75.12,0,0,0,18-36.42C191.15,89,191.52,85.77,192,82.58ZM62,77.37c.23-29,23.95-52.54,52.59-52.22,29.18.33,52.53,23.77,52.31,52.5A52.45,52.45,0,0,1,62,77.37Z"/></g></g></svg>