<?xml version="1.0" encoding="utf-8"?>
<!-- Generator: Adobe Illustrator 24.1.2, SVG Export Plug-In . SVG Version: 6.00 Build 0)  -->
<svg version="1.1" id="Capa_1" xmlns="http://www.w3.org/2000/svg" xmlns:xlink="http://www.w3.org/1999/xlink" x="0px" y="0px"
	 viewBox="0 0 18 21" style="enable-background:new 0 0 18 21;" xml:space="preserve">
<style type="text/css">
	.st0{fill:#EF0C0C;}
</style>
<g transform="matrix(.48127 0 0 .48127 -27.421 -64.085)">
	<path class="st0" d="M87.4,176.8H64.1c-2.3,0-4.1-2-4.1-4.4v-27.9h-0.6c-1.3,0-2.3-1-2.3-2.3s1-2.3,2.3-2.3h5.9
		c0.1-0.2,0.2-0.4,0.3-0.6l3.9-5.2c0.1-0.1,0.1-0.1,0.2-0.2c0.1-0.1,0.1-0.1,0.2-0.2l0,0c0,0,0,0,0,0c0.4-0.4,0.9-0.6,1.5-0.6l0,0
		c0,0,0,0,0,0h0c0,0,0,0,0,0h0c0,0,0,0,0,0h8.8c0,0,0,0,0,0l0,0c0,0,0,0,0,0s0,0,0,0h0l0,0c0.6,0,1.1,0.2,1.5,0.6l0,0l0,0
		c0.1,0.1,0.1,0.1,0.2,0.2c0.1,0.1,0.1,0.1,0.2,0.2l3.9,5.2c0.1,0.2,0.3,0.4,0.3,0.6H92c1.3,0,2.3,1,2.3,2.3s-1,2.3-2.3,2.3h-0.5
		v27.9C91.5,174.8,89.6,176.8,87.4,176.8z M64.6,172.1h22.3v-27.5H64.6V172.1z M87.4,144.7L87.4,144.7L87.4,144.7z M70.9,139.9h9.6
		l-1.6-2.1h-6.5L70.9,139.9z M80.1,168c-1.3,0-2.3-1-2.3-2.3v-16c0-1.3,1-2.3,2.3-2.3c1.3,0,2.3,1,2.3,2.3v16
		C82.4,167,81.4,168,80.1,168z M71.3,168c-1.3,0-2.3-1-2.3-2.3v-16c0-1.3,1-2.3,2.3-2.3c1.3,0,2.3,1,2.3,2.3v16
		C73.6,167,72.6,168,71.3,168z"/>
</g>
</svg>
